<!DOCTYPE svg PUBLIC "-//W3C//DTD SVG 20010904//EN" "http://www.w3.org/TR/2001/REC-SVG-20010904/DTD/svg10.dtd">
<svg version="1.0" xmlns="http://www.w3.org/2000/svg" width="285px" height="32px" viewBox="0 0 2850 320" preserveAspectRatio="xMidYMid meet">
<g id="layer101" fill="#2c2834" stroke="none">
<path d="M4 307 c-2 -7 -3 -78 -2 -157 l3 -145 155 0 155 0 3 158 3 157 -156 0 c-118 0 -157 -3 -161 -13z"/>
</g>
<g id="layer102" fill="#7b7a7f" stroke="none">
<path d="M14 297 c-2 -7 -3 -74 -2 -148 l3 -134 145 0 145 0 0 145 0 145 -143 3 c-111 2 -144 0 -148 -11z m276 -137 l0 -130 -130 0 -130 0 0 130 0 130 130 0 130 0 0 -130z"/>
<path d="M91 232 c-19 -15 -22 -25 -19 -87 l3 -70 33 -3 c24 -2 32 1 32 12 0 9 -9 16 -20 16 -19 0 -21 5 -18 58 l3 57 55 0 55 0 3 -57 c3 -53 1 -58 -18 -58 -11 0 -20 -7 -20 -16 0 -11 8 -14 33 -12 l32 3 3 70 c4 86 -12 105 -88 105 -31 0 -56 -6 -69 -18z"/>
</g>
<g id="layer103" fill="#ababaf" stroke="none">
<path d="M14 297 c-2 -7 -3 -74 -2 -148 l3 -134 145 0 145 0 1 115 c0 63 -1 90 -3 60 -1 -30 -5 -79 -9 -107 l-5 -53 -130 0 -129 0 0 129 0 128 118 10 117 10 -123 1 c-93 2 -124 -1 -128 -11z"/>
<path d="M103 240 c-27 -11 -35 -39 -31 -111 3 -52 4 -54 32 -54 16 0 31 6 34 13 2 7 -5 12 -17 12 -19 0 -21 6 -21 59 0 65 6 71 65 71 47 0 69 -24 61 -69 -3 -20 -6 -41 -6 -47 0 -7 -9 -14 -20 -17 -33 -9 -23 -29 13 -25 l32 3 3 71 c2 55 -1 74 -13 84 -20 16 -103 23 -132 10z"/>
</g>
<g id="layer104" fill="#fefefe" stroke="none">
<path d="M460 263 c-42 -16 -50 -34 -50 -120 0 -67 3 -83 15 -83 12 0 15 15 15 74 0 75 13 106 44 106 27 0 36 -26 36 -102 0 -63 3 -78 15 -78 12 0 15 16 15 83 0 51 -5 89 -12 100 -15 18 -55 29 -78 20z"/>
<path d="M623 264 c-9 -4 -13 -35 -13 -105 l0 -99 43 0 c70 0 84 16 85 104 0 48 -4 78 -12 85 -15 12 -86 22 -103 15z m78 -40 c18 -21 0 -48 -35 -52 -24 -3 -26 0 -26 32 0 31 3 36 24 36 13 0 29 -7 37 -16z m-1 -89 c19 -23 4 -45 -30 -45 -27 0 -30 3 -30 30 0 25 4 30 24 30 13 0 29 -7 36 -15z"/>
<path d="M813 260 c-21 -9 -23 -16 -23 -94 0 -74 3 -87 19 -96 31 -16 91 -13 91 5 0 11 -11 15 -40 15 -38 0 -40 2 -40 30 0 28 2 30 40 30 22 0 40 5 40 10 0 6 -18 10 -41 10 -39 0 -40 1 -37 33 3 29 6 32 41 35 24 2 37 8 34 15 -5 15 -55 19 -84 7z"/>
<path d="M2000 263 c-40 -15 -50 -35 -50 -100 0 -73 20 -103 69 -103 48 0 73 28 74 85 2 69 -8 100 -38 113 -28 13 -32 13 -55 5z m44 -36 c13 -10 17 -24 14 -66 -3 -61 -24 -85 -55 -65 -25 15 -30 105 -8 128 20 19 26 20 49 3z"/>
<path d="M2163 263 c-33 -6 -28 -23 6 -23 74 0 79 -26 16 -70 -36 -25 -45 -37 -45 -60 0 -36 23 -50 79 -50 29 0 41 4 41 14 0 10 -14 16 -42 18 -55 4 -55 21 -3 57 63 42 60 102 -5 114 -14 3 -35 3 -47 0z"/>
<path d="M2342 260 c-28 -12 -42 -47 -42 -106 0 -61 34 -97 87 -92 48 4 57 28 11 28 -47 0 -59 11 -65 58 -8 58 17 95 59 90 37 -4 49 17 16 26 -29 7 -38 7 -66 -4z"/>
<path d="M2502 260 c-48 -20 -59 -134 -17 -175 57 -58 125 -15 125 80 0 79 -47 120 -108 95z m60 -37 c23 -21 25 -95 2 -117 -33 -34 -65 -13 -71 47 -4 36 -1 49 16 66 25 25 29 26 53 4z"/>
<path d="M950 160 l0 -100 43 0 c23 0 53 7 65 16 27 18 29 60 5 87 -17 18 -16 21 5 58 22 38 22 39 3 39 -13 0 -29 -14 -43 -40 -30 -52 -48 -52 -48 0 0 29 -4 40 -15 40 -12 0 -15 -18 -15 -100z m96 -25 c9 -21 -14 -45 -42 -45 -20 0 -24 5 -24 30 0 27 3 30 30 30 18 0 33 -6 36 -15z"/>
<path d="M1150 250 c0 -6 16 -42 35 -80 19 -38 35 -72 35 -75 0 -3 -20 -5 -45 -5 -33 0 -45 -4 -45 -15 0 -20 118 -22 126 -2 7 20 -74 187 -91 187 -8 0 -15 -5 -15 -10z"/>
<path d="M1320 255 c0 -3 18 -41 40 -85 l40 -80 -45 0 c-33 0 -45 -4 -45 -15 0 -22 108 -22 116 0 10 25 -67 185 -88 185 -10 0 -18 -2 -18 -5z"/>
<path d="M1500 250 c0 -6 16 -42 35 -80 19 -38 35 -72 35 -75 0 -3 -20 -5 -45 -5 -33 0 -45 -4 -45 -15 0 -20 118 -22 126 -2 7 20 -74 187 -91 187 -8 0 -15 -5 -15 -10z"/>
<path d="M1660 240 c0 -11 7 -20 15 -20 8 0 15 9 15 20 0 11 -7 20 -15 20 -8 0 -15 -9 -15 -20z"/>
<path d="M1740 159 c0 -90 2 -100 17 -97 10 2 27 23 39 48 l22 45 23 -47 c15 -31 29 -48 41 -48 16 0 18 10 18 100 0 82 -3 100 -15 100 -12 0 -15 -14 -16 -67 l0 -68 -16 33 c-10 18 -24 32 -35 32 -11 0 -24 -13 -32 -32 -14 -33 -14 -33 -15 35 -1 52 -4 67 -16 67 -12 0 -15 -18 -15 -101z"/>
<path d="M2676 228 c-3 -18 -10 -60 -16 -92 -13 -76 -13 -76 5 -76 14 0 19 17 33 115 l8 50 12 -47 c10 -41 16 -48 36 -48 21 0 25 6 31 42 9 53 20 34 30 -49 5 -44 11 -63 21 -63 17 0 17 30 1 125 -11 64 -14 70 -37 70 -20 0 -26 -7 -36 -45 l-11 -45 -13 48 c-10 39 -16 47 -36 47 -18 0 -24 -7 -28 -32z"/>
<path d="M87 223 c-4 -3 -7 -37 -7 -75 l0 -68 33 1 c31 2 31 2 4 6 l-29 4 4 70 c2 38 3 69 2 69 0 0 -4 -3 -7 -7z"/>
</g>


</svg>